<mxfile host="65bd71144e">
    <diagram id="2GNkmUgkyu2V-Jqc7VF5" name="Page-1">
        <mxGraphModel dx="560" dy="461" grid="1" gridSize="10" guides="1" tooltips="1" connect="1" arrows="1" fold="1" page="1" pageScale="1" pageWidth="1169" pageHeight="827" background="none" math="0" shadow="0">
            <root>
                <mxCell id="0"/>
                <mxCell id="1" parent="0"/>
                <mxCell id="2" value="Wi-Fi" style="rounded=0;whiteSpace=wrap;html=1;fillColor=none;" vertex="1" parent="1">
                    <mxGeometry x="100" y="190" width="120" height="30" as="geometry"/>
                </mxCell>
                <mxCell id="3" value="mDNS" style="rounded=0;whiteSpace=wrap;html=1;fillColor=none;" vertex="1" parent="1">
                    <mxGeometry x="250" y="190" width="120" height="30" as="geometry"/>
                </mxCell>
                <mxCell id="4" value="WEB Server" style="rounded=0;whiteSpace=wrap;html=1;fillColor=none;" vertex="1" parent="1">
                    <mxGeometry x="100" y="290" width="270" height="30" as="geometry"/>
                </mxCell>
                <mxCell id="5" value="TLS" style="rounded=0;whiteSpace=wrap;html=1;fillColor=none;" vertex="1" parent="1">
                    <mxGeometry x="100" y="240" width="270" height="30" as="geometry"/>
                </mxCell>
                <mxCell id="6" value="Basic Auth" style="rounded=0;whiteSpace=wrap;html=1;fillColor=none;" vertex="1" parent="1">
                    <mxGeometry x="100" y="394" width="270" height="30" as="geometry"/>
                </mxCell>
                <mxCell id="7" value="GET" style="rounded=0;whiteSpace=wrap;html=1;fillColor=none;" vertex="1" parent="1">
                    <mxGeometry x="100" y="340" width="120" height="30" as="geometry"/>
                </mxCell>
                <mxCell id="8" value="PATCH" style="rounded=0;whiteSpace=wrap;html=1;fillColor=none;" vertex="1" parent="1">
                    <mxGeometry x="250" y="340" width="120" height="30" as="geometry"/>
                </mxCell>
                <mxCell id="12" value="get_all_models" style="rounded=0;whiteSpace=wrap;html=1;fillColor=none;" vertex="1" parent="1">
                    <mxGeometry x="100" y="450" width="100" height="30" as="geometry"/>
                </mxCell>
                <mxCell id="13" value="get_model" style="rounded=0;whiteSpace=wrap;html=1;fillColor=none;" vertex="1" parent="1">
                    <mxGeometry x="210" y="450" width="70" height="30" as="geometry"/>
                </mxCell>
                <mxCell id="14" value="patch_model" style="rounded=0;whiteSpace=wrap;html=1;fillColor=none;" vertex="1" parent="1">
                    <mxGeometry x="290" y="450" width="80" height="30" as="geometry"/>
                </mxCell>
            </root>
        </mxGraphModel>
    </diagram>
</mxfile>